<svg id="Capa_1" enable-background="new 0 0 512 512" height="512" viewBox="0 0 512 512" width="512" xmlns="http://www.w3.org/2000/svg"><g><path d="m204.602 64.177c-36.837-23.023-76.602-29.88-76.602-29.88s-13.945 37.866-12.424 81.279l-51.399 89.025c-38.357 20.39-64.177 51.399-64.177 51.399s25.82 31.009 64.177 51.399l51.398 89.025c-1.52 43.413 12.425 81.279 12.425 81.279s39.765-6.856 76.602-29.88h51.398v-383.646z" fill="#24b383"/><path d="m447.823 204.601-51.398-89.025c1.52-43.413-12.425-81.278-12.425-81.278s-39.765 6.856-76.602 29.88h-51.399v383.646h51.398c36.836 23.023 76.602 29.88 76.602 29.88s13.945-37.866 12.424-81.279l51.399-89.025c38.358-20.39 64.178-51.4 64.178-51.4s-25.82-31.009-64.177-51.399z" fill="#19805d"/><path d="m392.821 256c2.854-1.337 5.672-2.796 8.442-4.396 61.222-35.346 76.439-123.604 76.439-123.604s-84.042-30.95-145.263 4.396c-2.77 1.599-5.443 3.31-8.028 5.113l-34.724 27.524-33.687 90.967 73.5 24z" fill="#f6c"/><path d="m324.825 384c0-3.199-.145-6.369-.414-9.509l-9.911-62.035-58.5-56.456-20 103.5 20 152.5c.003-.002 68.825-57.309 68.825-128z" fill="#f6c"/><path d="m401.264 260.396c-2.77-1.599-5.588-3.059-8.442-4.396h-136.822l68.411 118.491c2.585 1.803 5.258 3.514 8.028 5.113 61.221 35.347 145.263 4.396 145.263 4.396s-15.217-88.258-76.438-123.604z" fill="#f9d"/><path d="m324.411 137.509c.269-3.14.414-6.311.414-9.509 0-70.692-68.825-128-68.825-128l-23.5 128 23.5 128z" fill="#f9d"/><path d="m187.175 128c0 3.199.145 6.369.414 9.509l11.911 66.991 56.5 51.5v-256s-68.825 57.308-68.825 128z" fill="#fce"/><path d="m187.589 137.509c-2.585-1.803-5.258-3.514-8.028-5.114-61.221-35.345-145.264-4.395-145.264-4.395s15.217 88.258 76.439 123.604c2.77 1.599 5.589 3.059 8.443 4.396l46.821 26.5 90-26.5z" fill="#f9d"/><path d="m110.736 260.396c-61.221 35.346-76.438 123.604-76.438 123.604s84.042 30.95 145.264-4.396c2.77-1.599 5.443-3.31 8.028-5.113l49.911-31.63 18.499-86.861h-136.821c-2.854 1.337-5.672 2.797-8.443 4.396z" fill="#fce"/><path d="m187.589 374.491c-.269 3.14-.414 6.31-.414 9.509 0 70.692 68.825 128 68.825 128v-256z" fill="#f9d"/><path d="m311.16 224.153c-11.765-20.377-33.168-31.779-55.16-31.817l-20 63.664 20 63.679c.036 0 .072.002.107.002 10.798 0 21.735-2.744 31.739-8.521 30.416-17.56 40.874-56.591 23.314-87.007z" fill="#f2e9e6"/><path d="m224.153 200.84c-30.415 17.561-40.874 56.591-23.313 87.007 11.766 20.378 33.167 31.795 55.16 31.832v-127.342c-10.833-.019-21.809 2.707-31.847 8.503z" fill="#fff5f5"/><path d="m285.179 239.153c-6.223-10.778-17.547-16.818-29.179-16.838l-20 33.68 20 33.68c5.731.01 11.536-1.431 16.847-4.496 16.089-9.288 21.621-29.936 12.332-46.026z" fill="#f6c"/><path d="m255.943 222.314c-5.713 0-11.497 1.451-16.79 4.507-16.089 9.289-21.622 29.937-12.333 46.026 6.223 10.779 17.545 16.809 29.179 16.829v-67.361c-.018 0-.037-.001-.056-.001z" fill="#f9d"/></g></svg>