<svg height="512pt" viewBox="0 0 512 512" width="512pt" xmlns="http://www.w3.org/2000/svg"><path d="m512 256c0 77.59375-34.523438 147.132812-89.058594 194.078125-3.949218 3.40625-8.003906 6.6875-12.160156 9.84375-42.976562 32.675781-96.613281 52.078125-154.78125 52.078125s-111.804688-19.402344-154.78125-52.078125c-4.15625-3.15625-8.210938-6.4375-12.160156-9.84375-54.535156-46.945313-89.058594-116.484375-89.058594-194.078125 0-141.386719 114.613281-256 256-256s256 114.613281 256 256zm0 0" fill="#61b3ed"/><path d="m410.78125 459.921875c-42.976562 32.675781-96.613281 52.078125-154.78125 52.078125s-111.804688-19.402344-154.78125-52.078125c32.101562-15.683594 89.414062-26.121094 154.78125-26.121094s122.691406 10.4375 154.78125 26.121094zm0 0" fill="#498dd6"/><path d="m436.164062 150.222656c-35.816406-200.292968-324.519531-200.292968-360.335937 0-3.1875 17.828125-4.851563 36.183594-4.851563 54.933594 0 126.746094 76.058594 235.714844 185.019532 283.792969 108.960937-48.082031 185.019531-157.046875 185.019531-283.792969.003906-18.75-1.660156-37.105469-4.851563-54.933594zm0 0" fill="#fc5f61"/><path d="m400.859375 183.796875c0 74.394531-56.078125 135.707031-128.277344 143.921875-5.441406.628906-10.964843.953125-16.578125.953125-80.003906 0-144.871094-64.871094-144.871094-144.875 0-80 64.867188-144.855469 144.871094-144.855469 5.613282 0 11.136719.324219 16.578125.953125 72.199219 8.214844 128.277344 69.511719 128.277344 143.902344zm0 0" fill="#fcf8f2"/><path d="m245.046875 328.257812c-74.886719-5.59375-133.917969-68.144531-133.917969-144.457031s59.03125-138.839843 133.90625-144.445312c-43.441406 33.203125-71.464844 85.550781-71.464844 144.445312 0 58.890625 28.035157 111.253907 71.476563 144.457031zm0 0" fill="#e8e3dd"/><path d="m273.785156 29.519531c-5.863281-.679687-11.839844-1.023437-17.785156-1.023437-6.425781 0-12.765625.390625-18.988281 1.152344-16.5 2.019531-21.175781-22.027344-5.136719-26.398438 7.949219-2.167969 16.039062-3.25 24.125-3.25-81.125 0-162.261719 50.082031-180.171875 150.226562-3.1875 17.824219-4.847656 36.183594-4.847656 54.929688 0 126.746094 76.058593 235.707031 185.019531 283.792969-34.179688-22.261719-63.585938-57.5625-85.316406-101.640625-14.457032-29.332032 12.636718-62.390625 44.171875-53.71875 13.109375 3.605468 26.90625 5.53125 41.144531 5.53125 5.945312 0 11.921875-.34375 17.761719-1.023438 78.410156-8.914062 137.542969-75.253906 137.542969-154.300781 0-79.035156-59.132813-145.367187-137.519532-154.277344zm-2.402344 287.816407c-5.070312.585937-10.242187.886718-15.382812.886718-56.164062 0-104.386719-34.625-124.46875-83.652344 0 0 .011719 0 0-.011718-6.40625-15.671875-9.945312-32.808594-9.945312-50.761719 0-24.910156 6.8125-48.253906 18.660156-68.273437 23.425781-39.550782 66.550781-66.132813 115.753906-66.132813 5.140625 0 10.3125.292969 15.402344.890625 67.84375 7.710938 119.003906 65.117188 119.003906 133.515625 0 68.410156-51.160156 125.816406-119.023438 133.539063zm0 0" fill="#e53841"/></svg>