<svg height="512pt" viewBox="0 0 512 512.00001" width="512pt" xmlns="http://www.w3.org/2000/svg"><path d="m512 256c0 141.386719-114.617188 256-256 256-141.386719 0-256-114.613281-256-256 0-141.382812 114.613281-256 256-256 141.382812 0 256 114.617188 256 256zm0 0" fill="#fdd25d"/><path d="m410.78125 459.921875c-42.976562 32.671875-96.609375 52.078125-154.777344 52.078125-58.171875 0-111.804687-19.40625-154.78125-52.078125 32.097656-15.683594 89.410156-26.121094 154.78125-26.121094 65.367188 0 122.691406 10.4375 154.777344 26.121094zm0 0" fill="#eaa339"/><path d="m436.167969 150.21875c-35.816407-200.289062-324.523438-200.289062-360.335938 0-3.191406 17.832031-4.855469 36.1875-4.855469 54.9375 0 126.746094 76.0625 235.710938 185.023438 283.792969 108.957031-48.082031 185.019531-157.046875 185.019531-283.792969 0-18.75-1.664062-37.105469-4.851562-54.9375zm0 0" fill="#61b3ed"/><path d="m400.859375 183.796875c0 74.394531-56.078125 135.707031-128.273437 143.921875-5.441407.628906-10.96875.949219-16.582032.949219-80 0-144.871094-64.867188-144.871094-144.871094 0-80 64.871094-144.855469 144.871094-144.855469 5.613282 0 11.140625.324219 16.582032.953125 72.195312 8.214844 128.273437 69.511719 128.273437 143.902344zm0 0" fill="#fcf8f2"/><g fill="#fc5f61"><path d="m294.21875 98.003906c0 19.628906-14.796875 59.210938-33.84375 61.375-1.4375.167969-2.894531 0-4.375 0-21.109375 0-38.226562-40.265625-38.226562-61.375s17.117187-38.222656 38.226562-38.222656c1.480469 0 2.9375.085938 4.375.253906 19.050781 2.167969 33.84375 18.339844 33.84375 37.96875zm0 0"/><path d="m217.773438 269.609375c0-19.628906 14.796874-59.210937 33.847656-61.375 1.433594-.167969 2.894531 0 4.375 0 21.105468 0 38.222656 40.265625 38.222656 61.375s-17.117188 38.222656-38.222656 38.222656c-1.484375 0-2.941406-.085937-4.375-.253906-19.050782-2.167969-33.847656-18.339844-33.847656-37.96875zm0 0"/><path d="m349.414062 174.007812c-17 9.8125-58.675781 16.789063-70.074218 1.375-.863282-1.160156-1.449219-2.503906-2.1875-3.789062-10.554688-18.28125 15.757812-53.234375 34.039062-63.792969 18.28125-10.554687 41.660156-4.285156 52.214844 13.996094.738281 1.28125 1.394531 2.585937 1.96875 3.914063 7.648438 17.582031 1.039062 38.484374-15.960938 48.296874zm0 0"/><path d="m162.578125 193.605469c17-9.816407 58.675781-16.789063 70.078125-1.375.859375 1.160156 1.445312 2.503906 2.1875 3.789062 10.554688 18.28125-15.761719 53.234375-34.042969 63.792969-18.28125 10.554688-41.65625 4.285156-52.210937-13.996094-.742188-1.28125-1.398438-2.585937-1.972656-3.914062-7.648438-17.582032-1.039063-38.484375 15.960937-48.296875zm0 0"/><path d="m311.191406 259.808594c-17-9.8125-43.878906-42.417969-36.230468-60 .574218-1.324219 1.449218-2.503906 2.1875-3.789063 10.554687-18.28125 53.984374-12.96875 72.265624-2.414062 18.28125 10.554687 24.542969 33.933593 13.988282 52.214843-.738282 1.28125-1.542969 2.503907-2.40625 3.664063-11.398438 15.414063-32.804688 20.140625-49.804688 10.324219zm0 0"/><path d="m200.800781 107.804688c17 9.8125 43.878907 42.417968 36.230469 60-.574219 1.324218-1.445312 2.503906-2.1875 3.785156-10.550781 18.285156-53.984375 12.972656-72.265625 2.417968-18.28125-10.554687-24.542969-33.933593-13.988281-52.214843.742187-1.28125 1.546875-2.503907 2.40625-3.664063 11.402344-15.414062 32.804687-20.140625 49.804687-10.324218zm0 0"/></g><path d="m308.941406 183.804688c0 27.1875-20.496094 49.597656-46.882812 52.601562-1.988282.230469-4.007813.347656-6.058594.347656-29.242188 0-52.949219-23.710937-52.949219-52.949218 0-29.242188 23.707031-52.945313 52.949219-52.945313 2.050781 0 4.070312.117187 6.058594.347656 26.390625 3.003907 46.882812 25.40625 46.882812 52.597657zm0 0" fill="#fdd25d"/><path d="m290.78125 183.804688c0 17.863281-13.464844 32.585937-30.800781 34.558593-1.304688.152344-2.632813.230469-3.980469.230469-19.210938 0-34.789062-15.578125-34.789062-34.789062 0-19.210938 15.578124-34.785157 34.789062-34.785157 1.347656 0 2.671875.078125 3.980469.230469 17.335937 1.972656 30.800781 16.691406 30.800781 34.554688zm0 0" fill="#eaa339"/><path d="m273.785156 29.519531c-5.859375-.679687-11.835937-1.023437-17.78125-1.023437-6.429687 0-12.765625.390625-18.988281 1.152344-16.503906 2.019531-21.179687-22.027344-5.136719-26.398438 7.949219-2.167969 16.035156-3.25 24.125-3.25-81.128906 0-162.261718 50.082031-180.171875 150.226562-3.1875 17.824219-4.847656 36.183594-4.847656 54.929688 0 126.746094 76.054687 235.707031 185.019531 283.792969-34.183594-22.261719-63.589844-57.566407-85.316406-101.640625-14.460938-29.335938 12.636719-62.390625 44.171875-53.71875 13.109375 3.605468 26.90625 5.53125 41.144531 5.53125 5.945313 0 11.921875-.347656 17.761719-1.023438 78.410156-8.914062 137.539063-75.253906 137.539063-154.300781 0-79.035156-59.128907-145.367187-137.519532-154.277344zm-2.402344 287.816407c-5.066406.585937-10.238281.886718-15.378906.886718-56.164062 0-104.386718-34.628906-124.46875-83.652344 0 0 .011719 0 0-.011718-6.40625-15.671875-9.949218-32.808594-9.949218-50.761719 0-24.910156 6.8125-48.253906 18.664062-68.273437 23.425781-39.550782 66.546875-66.132813 115.753906-66.132813 5.140625 0 10.3125.292969 15.402344.890625 67.84375 7.710938 119 65.117188 119 133.515625 0 68.410156-51.15625 125.816406-119.023438 133.539063zm0 0" fill="#498dd6"/></svg>